<svg width="1024" height="1024" viewBox="0 0 1024 1024" fill="none" xmlns="http://www.w3.org/2000/svg">
<g clip-path="url(#clip0)">
<rect width="1024" height="1024" fill="white"/>
<g filter="url(#filter0_d)">
<rect width="1024" height="1024" fill="url(#paint0_linear)"/>
</g>
<path d="M135.537 443.325C124.887 447.375 116.637 453.675 110.787 462.225C104.937 470.625 102.012 480.975 102.012 493.275C102.012 498.825 102.537 502.725 103.587 504.975C104.637 507.075 105.162 508.275 105.162 508.575C97.0623 508.575 90.9873 506.925 86.9373 503.625C83.0373 500.175 81.0873 494.55 81.0873 486.75C81.0873 477.15 84.9873 467.85 92.7873 458.85C100.737 449.7 110.862 442.35 123.162 436.8C135.462 431.1 147.762 428.25 160.062 428.25C162.162 428.25 165.162 428.4 169.062 428.7L171.087 567.075L218.337 429.375H246.912L248.937 567.075L296.187 429.375H311.937L249.387 597H216.987L214.287 482.475L171.537 597H139.137L135.537 443.325ZM333.743 472.35C328.793 472.35 324.593 470.625 321.143 467.175C317.693 463.725 315.968 459.525 315.968 454.575C315.968 449.625 317.693 445.425 321.143 441.975C324.593 438.375 328.793 436.575 333.743 436.575C338.693 436.575 342.893 438.375 346.343 441.975C349.943 445.425 351.743 449.625 351.743 454.575C351.743 459.525 349.943 463.725 346.343 467.175C342.893 470.625 338.693 472.35 333.743 472.35ZM318.443 598.35C311.243 598.35 305.393 596.1 300.893 591.6C296.543 587.1 294.368 580.35 294.368 571.35C294.368 567.6 294.968 562.725 296.168 556.725L311.468 484.5H343.868L327.668 561C327.068 563.25 326.768 565.65 326.768 568.2C326.768 571.2 327.443 573.375 328.793 574.725C330.293 575.925 332.693 576.525 335.993 576.525C340.343 576.525 344.393 574.725 348.143 571.125C351.893 567.375 354.593 562.575 356.243 556.725H365.693C360.143 572.925 353.018 583.95 344.318 589.8C335.618 595.5 326.993 598.35 318.443 598.35ZM381.803 598.35C374.603 598.35 368.528 597 363.578 594.3C358.628 591.45 354.953 587.85 352.553 583.5C350.153 579 348.953 574.35 348.953 569.55C348.953 564.6 350.153 560.325 352.553 556.725C354.803 552.975 357.578 550.275 360.878 548.625C366.728 538.125 371.828 527.55 376.178 516.9C380.528 506.1 384.653 494.475 388.553 482.025L421.853 477.525C422.603 496.725 423.878 517.5 425.678 539.85C426.428 548.85 426.803 555.375 426.803 559.425C426.803 562.875 426.503 565.725 425.903 567.975C432.953 563.925 438.353 560.175 442.103 556.725H451.553C441.953 567.825 430.478 577.2 417.128 584.85C412.778 589.5 407.378 592.95 400.928 595.2C394.628 597.3 388.253 598.35 381.803 598.35ZM374.603 580.575C380.153 580.575 384.803 578.925 388.553 575.625C392.303 572.325 394.178 567 394.178 559.65C394.178 555.15 393.728 548.85 392.828 540.75C391.328 523.65 390.353 512.175 389.903 506.325C386.303 518.175 380.228 532.35 371.678 548.85C375.128 550.65 376.853 553.275 376.853 556.725C376.853 559.575 375.878 562.125 373.928 564.375C372.128 566.625 369.803 567.75 366.953 567.75C363.803 567.75 361.778 566.775 360.878 564.825C360.878 570.225 361.928 574.2 364.028 576.75C366.278 579.3 369.803 580.575 374.603 580.575ZM473.791 598.35C462.841 598.35 454.291 595.5 448.141 589.8C441.991 583.95 438.916 574.875 438.916 562.575C438.916 552.225 440.941 540.825 444.991 528.375C449.041 515.925 455.641 505.2 464.791 496.2C473.941 487.05 485.566 482.475 499.666 482.475C516.166 482.475 524.416 489.675 524.416 504.075C524.416 512.475 522.016 520.2 517.216 527.25C512.416 534.3 506.041 540 498.091 544.35C490.141 548.55 481.666 550.95 472.666 551.55C472.366 554.85 472.216 557.1 472.216 558.3C472.216 570.75 476.866 576.975 486.166 576.975C490.366 576.975 494.866 575.85 499.666 573.6C504.466 571.35 508.816 568.5 512.716 565.05C508.666 587.25 495.691 598.35 473.791 598.35ZM474.241 540.75C479.941 540.6 485.266 538.725 490.216 535.125C495.316 531.525 499.366 526.95 502.366 521.4C505.516 515.7 507.091 509.775 507.091 503.625C507.091 497.475 505.216 494.4 501.466 494.4C496.216 494.4 490.966 499.2 485.716 508.8C480.616 518.25 476.791 528.9 474.241 540.75ZM591.739 448.05H589.039C575.689 448.05 565.264 451.425 557.764 458.175C550.414 464.775 546.739 476.55 546.739 493.5C546.739 499.05 547.264 502.95 548.314 505.2C549.364 507.3 549.889 508.5 549.889 508.8C541.789 508.8 535.714 507.15 531.664 503.85C527.764 500.4 525.814 494.775 525.814 486.975C525.814 476.325 528.439 466.65 533.689 457.95C538.939 449.1 547.264 441.975 558.664 436.575C570.214 431.175 584.839 428.475 602.539 428.475C612.439 428.475 623.089 429.375 634.489 431.175C644.089 432.825 652.639 433.65 660.139 433.65C669.739 433.65 678.439 432.075 686.239 428.925C685.939 438.675 683.464 445.875 678.814 450.525C674.164 455.175 667.264 457.5 658.114 457.5C653.314 457.5 648.514 457.125 643.714 456.375C638.914 455.625 632.089 454.35 623.239 452.55L592.189 597H559.789L591.739 448.05ZM659.789 598.35C651.239 598.35 644.114 595.425 638.414 589.575C632.714 583.725 629.864 574.575 629.864 562.125C629.864 551.025 632.039 539.4 636.389 527.25C640.889 514.95 647.489 504.6 656.189 496.2C665.039 487.65 675.539 483.375 687.689 483.375C693.839 483.375 698.414 484.425 701.414 486.525C704.414 488.625 705.914 491.4 705.914 494.85V496.425L708.389 484.5H740.789L724.589 561C723.989 563.25 723.689 565.65 723.689 568.2C723.689 574.65 726.764 577.875 732.914 577.875C737.114 577.875 740.714 575.925 743.714 572.025C746.864 568.125 749.339 563.025 751.139 556.725H760.589C755.039 572.925 748.139 583.95 739.889 589.8C731.789 595.5 723.614 598.35 715.364 598.35C709.064 598.35 703.964 596.625 700.064 593.175C696.314 589.575 694.064 584.4 693.314 577.65C688.964 583.8 684.089 588.825 678.689 592.725C673.439 596.475 667.139 598.35 659.789 598.35ZM674.414 576.525C678.164 576.525 681.839 574.8 685.439 571.35C689.189 567.75 691.739 562.875 693.089 556.725L703.889 505.875C703.889 503.925 703.139 502.05 701.639 500.25C700.139 498.3 697.814 497.325 694.664 497.325C688.664 497.325 683.264 500.85 678.464 507.9C673.664 514.8 669.914 523.2 667.214 533.1C664.514 542.85 663.164 551.475 663.164 558.975C663.164 566.475 664.214 571.275 666.314 573.375C668.564 575.475 671.264 576.525 674.414 576.525ZM776.872 598.35C769.672 598.35 763.597 597 758.647 594.3C753.697 591.45 750.022 587.85 747.622 583.5C745.222 579 744.022 574.35 744.022 569.55C744.022 564.6 745.222 560.325 747.622 556.725C749.872 552.975 752.647 550.275 755.947 548.625C761.797 538.125 766.897 527.55 771.247 516.9C775.597 506.1 779.722 494.475 783.622 482.025L816.922 477.525C817.672 496.725 818.947 517.5 820.747 539.85C821.497 548.85 821.872 555.375 821.872 559.425C821.872 562.875 821.572 565.725 820.972 567.975C828.022 563.925 833.422 560.175 837.172 556.725H846.622C837.022 567.825 825.547 577.2 812.197 584.85C807.847 589.5 802.447 592.95 795.997 595.2C789.697 597.3 783.322 598.35 776.872 598.35ZM769.672 580.575C775.222 580.575 779.872 578.925 783.622 575.625C787.372 572.325 789.247 567 789.247 559.65C789.247 555.15 788.797 548.85 787.897 540.75C786.397 523.65 785.422 512.175 784.972 506.325C781.372 518.175 775.297 532.35 766.747 548.85C770.197 550.65 771.922 553.275 771.922 556.725C771.922 559.575 770.947 562.125 768.997 564.375C767.197 566.625 764.872 567.75 762.022 567.75C758.872 567.75 756.847 566.775 755.947 564.825C755.947 570.225 756.997 574.2 759.097 576.75C761.347 579.3 764.872 580.575 769.672 580.575ZM921.735 598.35C912.435 598.35 905.385 596.175 900.585 591.825C895.785 587.325 893.385 580.95 893.385 572.7C893.385 569.1 893.835 565.2 894.735 561L896.535 552.225C897.135 549.675 897.435 546.9 897.435 543.9C897.435 536.7 894.735 533.1 889.335 533.1C886.935 533.1 884.385 533.775 881.685 535.125C879.135 536.475 876.135 538.575 872.685 541.425L860.985 597H828.585L861.21 444L894.51 439.5L877.635 518.7L921.06 484.5H943.335L898.335 515.775C900.585 515.175 903.06 514.875 905.76 514.875C913.86 514.875 920.01 517.35 924.21 522.3C928.41 527.25 930.51 533.55 930.51 541.2C930.51 544.35 930.21 547.2 929.61 549.75L927.135 561C926.385 563.7 926.01 566.1 926.01 568.2C926.01 573.75 928.935 576.525 934.785 576.525C938.085 576.525 940.185 576.3 941.085 575.85C941.985 575.4 942.51 575.175 942.66 575.175C942.36 580.125 940.935 584.325 938.385 587.775C935.985 591.225 933.135 593.85 929.835 595.65C926.685 597.45 923.985 598.35 921.735 598.35Z" fill="url(#paint1_linear)"/>
<path d="M135.537 443.325C124.887 447.375 116.637 453.675 110.787 462.225C104.937 470.625 102.012 480.975 102.012 493.275C102.012 498.825 102.537 502.725 103.587 504.975C104.637 507.075 105.162 508.275 105.162 508.575C97.0623 508.575 90.9873 506.925 86.9373 503.625C83.0373 500.175 81.0873 494.55 81.0873 486.75C81.0873 477.15 84.9873 467.85 92.7873 458.85C100.737 449.7 110.862 442.35 123.162 436.8C135.462 431.1 147.762 428.25 160.062 428.25C162.162 428.25 165.162 428.4 169.062 428.7L171.087 567.075L218.337 429.375H246.912L248.937 567.075L296.187 429.375H311.937L249.387 597H216.987L214.287 482.475L171.537 597H139.137L135.537 443.325ZM333.743 472.35C328.793 472.35 324.593 470.625 321.143 467.175C317.693 463.725 315.968 459.525 315.968 454.575C315.968 449.625 317.693 445.425 321.143 441.975C324.593 438.375 328.793 436.575 333.743 436.575C338.693 436.575 342.893 438.375 346.343 441.975C349.943 445.425 351.743 449.625 351.743 454.575C351.743 459.525 349.943 463.725 346.343 467.175C342.893 470.625 338.693 472.35 333.743 472.35ZM318.443 598.35C311.243 598.35 305.393 596.1 300.893 591.6C296.543 587.1 294.368 580.35 294.368 571.35C294.368 567.6 294.968 562.725 296.168 556.725L311.468 484.5H343.868L327.668 561C327.068 563.25 326.768 565.65 326.768 568.2C326.768 571.2 327.443 573.375 328.793 574.725C330.293 575.925 332.693 576.525 335.993 576.525C340.343 576.525 344.393 574.725 348.143 571.125C351.893 567.375 354.593 562.575 356.243 556.725H365.693C360.143 572.925 353.018 583.95 344.318 589.8C335.618 595.5 326.993 598.35 318.443 598.35ZM381.803 598.35C374.603 598.35 368.528 597 363.578 594.3C358.628 591.45 354.953 587.85 352.553 583.5C350.153 579 348.953 574.35 348.953 569.55C348.953 564.6 350.153 560.325 352.553 556.725C354.803 552.975 357.578 550.275 360.878 548.625C366.728 538.125 371.828 527.55 376.178 516.9C380.528 506.1 384.653 494.475 388.553 482.025L421.853 477.525C422.603 496.725 423.878 517.5 425.678 539.85C426.428 548.85 426.803 555.375 426.803 559.425C426.803 562.875 426.503 565.725 425.903 567.975C432.953 563.925 438.353 560.175 442.103 556.725H451.553C441.953 567.825 430.478 577.2 417.128 584.85C412.778 589.5 407.378 592.95 400.928 595.2C394.628 597.3 388.253 598.35 381.803 598.35ZM374.603 580.575C380.153 580.575 384.803 578.925 388.553 575.625C392.303 572.325 394.178 567 394.178 559.65C394.178 555.15 393.728 548.85 392.828 540.75C391.328 523.65 390.353 512.175 389.903 506.325C386.303 518.175 380.228 532.35 371.678 548.85C375.128 550.65 376.853 553.275 376.853 556.725C376.853 559.575 375.878 562.125 373.928 564.375C372.128 566.625 369.803 567.75 366.953 567.75C363.803 567.75 361.778 566.775 360.878 564.825C360.878 570.225 361.928 574.2 364.028 576.75C366.278 579.3 369.803 580.575 374.603 580.575ZM473.791 598.35C462.841 598.35 454.291 595.5 448.141 589.8C441.991 583.95 438.916 574.875 438.916 562.575C438.916 552.225 440.941 540.825 444.991 528.375C449.041 515.925 455.641 505.2 464.791 496.2C473.941 487.05 485.566 482.475 499.666 482.475C516.166 482.475 524.416 489.675 524.416 504.075C524.416 512.475 522.016 520.2 517.216 527.25C512.416 534.3 506.041 540 498.091 544.35C490.141 548.55 481.666 550.95 472.666 551.55C472.366 554.85 472.216 557.1 472.216 558.3C472.216 570.75 476.866 576.975 486.166 576.975C490.366 576.975 494.866 575.85 499.666 573.6C504.466 571.35 508.816 568.5 512.716 565.05C508.666 587.25 495.691 598.35 473.791 598.35ZM474.241 540.75C479.941 540.6 485.266 538.725 490.216 535.125C495.316 531.525 499.366 526.95 502.366 521.4C505.516 515.7 507.091 509.775 507.091 503.625C507.091 497.475 505.216 494.4 501.466 494.4C496.216 494.4 490.966 499.2 485.716 508.8C480.616 518.25 476.791 528.9 474.241 540.75ZM591.739 448.05H589.039C575.689 448.05 565.264 451.425 557.764 458.175C550.414 464.775 546.739 476.55 546.739 493.5C546.739 499.05 547.264 502.95 548.314 505.2C549.364 507.3 549.889 508.5 549.889 508.8C541.789 508.8 535.714 507.15 531.664 503.85C527.764 500.4 525.814 494.775 525.814 486.975C525.814 476.325 528.439 466.65 533.689 457.95C538.939 449.1 547.264 441.975 558.664 436.575C570.214 431.175 584.839 428.475 602.539 428.475C612.439 428.475 623.089 429.375 634.489 431.175C644.089 432.825 652.639 433.65 660.139 433.65C669.739 433.65 678.439 432.075 686.239 428.925C685.939 438.675 683.464 445.875 678.814 450.525C674.164 455.175 667.264 457.5 658.114 457.5C653.314 457.5 648.514 457.125 643.714 456.375C638.914 455.625 632.089 454.35 623.239 452.55L592.189 597H559.789L591.739 448.05ZM659.789 598.35C651.239 598.35 644.114 595.425 638.414 589.575C632.714 583.725 629.864 574.575 629.864 562.125C629.864 551.025 632.039 539.4 636.389 527.25C640.889 514.95 647.489 504.6 656.189 496.2C665.039 487.65 675.539 483.375 687.689 483.375C693.839 483.375 698.414 484.425 701.414 486.525C704.414 488.625 705.914 491.4 705.914 494.85V496.425L708.389 484.5H740.789L724.589 561C723.989 563.25 723.689 565.65 723.689 568.2C723.689 574.65 726.764 577.875 732.914 577.875C737.114 577.875 740.714 575.925 743.714 572.025C746.864 568.125 749.339 563.025 751.139 556.725H760.589C755.039 572.925 748.139 583.95 739.889 589.8C731.789 595.5 723.614 598.35 715.364 598.35C709.064 598.35 703.964 596.625 700.064 593.175C696.314 589.575 694.064 584.4 693.314 577.65C688.964 583.8 684.089 588.825 678.689 592.725C673.439 596.475 667.139 598.35 659.789 598.35ZM674.414 576.525C678.164 576.525 681.839 574.8 685.439 571.35C689.189 567.75 691.739 562.875 693.089 556.725L703.889 505.875C703.889 503.925 703.139 502.05 701.639 500.25C700.139 498.3 697.814 497.325 694.664 497.325C688.664 497.325 683.264 500.85 678.464 507.9C673.664 514.8 669.914 523.2 667.214 533.1C664.514 542.85 663.164 551.475 663.164 558.975C663.164 566.475 664.214 571.275 666.314 573.375C668.564 575.475 671.264 576.525 674.414 576.525ZM776.872 598.35C769.672 598.35 763.597 597 758.647 594.3C753.697 591.45 750.022 587.85 747.622 583.5C745.222 579 744.022 574.35 744.022 569.55C744.022 564.6 745.222 560.325 747.622 556.725C749.872 552.975 752.647 550.275 755.947 548.625C761.797 538.125 766.897 527.55 771.247 516.9C775.597 506.1 779.722 494.475 783.622 482.025L816.922 477.525C817.672 496.725 818.947 517.5 820.747 539.85C821.497 548.85 821.872 555.375 821.872 559.425C821.872 562.875 821.572 565.725 820.972 567.975C828.022 563.925 833.422 560.175 837.172 556.725H846.622C837.022 567.825 825.547 577.2 812.197 584.85C807.847 589.5 802.447 592.95 795.997 595.2C789.697 597.3 783.322 598.35 776.872 598.35ZM769.672 580.575C775.222 580.575 779.872 578.925 783.622 575.625C787.372 572.325 789.247 567 789.247 559.65C789.247 555.15 788.797 548.85 787.897 540.75C786.397 523.65 785.422 512.175 784.972 506.325C781.372 518.175 775.297 532.35 766.747 548.85C770.197 550.65 771.922 553.275 771.922 556.725C771.922 559.575 770.947 562.125 768.997 564.375C767.197 566.625 764.872 567.75 762.022 567.75C758.872 567.75 756.847 566.775 755.947 564.825C755.947 570.225 756.997 574.2 759.097 576.75C761.347 579.3 764.872 580.575 769.672 580.575ZM921.735 598.35C912.435 598.35 905.385 596.175 900.585 591.825C895.785 587.325 893.385 580.95 893.385 572.7C893.385 569.1 893.835 565.2 894.735 561L896.535 552.225C897.135 549.675 897.435 546.9 897.435 543.9C897.435 536.7 894.735 533.1 889.335 533.1C886.935 533.1 884.385 533.775 881.685 535.125C879.135 536.475 876.135 538.575 872.685 541.425L860.985 597H828.585L861.21 444L894.51 439.5L877.635 518.7L921.06 484.5H943.335L898.335 515.775C900.585 515.175 903.06 514.875 905.76 514.875C913.86 514.875 920.01 517.35 924.21 522.3C928.41 527.25 930.51 533.55 930.51 541.2C930.51 544.35 930.21 547.2 929.61 549.75L927.135 561C926.385 563.7 926.01 566.1 926.01 568.2C926.01 573.75 928.935 576.525 934.785 576.525C938.085 576.525 940.185 576.3 941.085 575.85C941.985 575.4 942.51 575.175 942.66 575.175C942.36 580.125 940.935 584.325 938.385 587.775C935.985 591.225 933.135 593.85 929.835 595.65C926.685 597.45 923.985 598.35 921.735 598.35Z" fill="url(#paint2_linear)"/>
</g>
<defs>
<filter id="filter0_d" x="-4" y="0" width="1032" height="1032" filterUnits="userSpaceOnUse" color-interpolation-filters="sRGB">
<feFlood flood-opacity="0" result="BackgroundImageFix"/>
<feColorMatrix in="SourceAlpha" type="matrix" values="0 0 0 0 0 0 0 0 0 0 0 0 0 0 0 0 0 0 127 0" result="hardAlpha"/>
<feOffset dy="4"/>
<feGaussianBlur stdDeviation="2"/>
<feColorMatrix type="matrix" values="0 0 0 0 0 0 0 0 0 0 0 0 0 0 0 0 0 0 0.25 0"/>
<feBlend mode="normal" in2="BackgroundImageFix" result="effect1_dropShadow"/>
<feBlend mode="normal" in="SourceGraphic" in2="effect1_dropShadow" result="shape"/>
</filter>
<linearGradient id="paint0_linear" x1="512" y1="0" x2="512" y2="1024" gradientUnits="userSpaceOnUse">
<stop stop-color="#0074FF"/>
<stop offset="1" stop-color="#001E42"/>
</linearGradient>
<linearGradient id="paint1_linear" x1="36" y1="512.5" x2="987" y2="512.5" gradientUnits="userSpaceOnUse">
<stop offset="0.0833333" stop-color="white"/>
<stop offset="1" stop-color="white"/>
</linearGradient>
<linearGradient id="paint2_linear" x1="36" y1="512.5" x2="987" y2="512.5" gradientUnits="userSpaceOnUse">
<stop offset="0.0833333" stop-color="white"/>
<stop offset="1" stop-color="white"/>
</linearGradient>
<clipPath id="clip0">
<rect width="1024" height="1024" fill="white"/>
</clipPath>
</defs>
</svg>
